<svg width="4096" height="64" viewBox="0 0 4096 64" fill="none" xmlns="http://www.w3.org/2000/svg">
<mask id="path-1-inside-1_34_116" fill="white">
<path d="M2048 32.0706C1776.79 74.6562 1627.26 74.6301 1365 32.0706V0H2731V32.0706C2463.84 -9.13288 2328 -11.2029 2048 32.0706Z"/>
</mask>
<path d="M1365 32.0706L1204.97 1018.17L366 882.02V32.0706H1365ZM2048 32.0706L1893.03 -954.837L1894.23 -955.024L1895.42 -955.209L2048 32.0706ZM2731 32.0706H3730V1196.96L2578.73 1019.4L2731 32.0706ZM2731 0V-999H3730V0H2731ZM1365 0H366V-999H1365V0ZM1525.03 -954.029C1626.09 -937.628 1671.71 -935.001 1703.17 -935C1735.68 -934.999 1784.71 -937.827 1893.03 -954.837L2202.97 1018.98C1830.78 1077.42 1574.87 1078.2 1204.97 1018.17L1525.03 -954.029ZM1895.42 -955.209C2279.98 -1014.64 2518.7 -1011.48 2883.27 -955.256L2578.73 1019.4C2466.34 1002.06 2421.76 999.464 2391.79 999.389C2362.19 999.314 2315.05 1001.66 2200.58 1019.35L1895.42 -955.209ZM1732 32.0706V0H3730V32.0706H1732ZM2731 999H1365V-999H2731V999ZM2364 0V32.0706H366V0H2364Z" fill="url(#paint0_linear_34_116)" mask="url(#path-1-inside-1_34_116)"/>
<mask id="path-3-inside-2_34_116" fill="white">
<path d="M3413 32.0755C3141.79 74.6611 2992.26 74.6349 2730 32.0755V0.00488281H4096V32.0755C3828.84 -9.128 3693 -11.1981 3413 32.0755Z"/>
</mask>
<path d="M2730 32.0755L2569.97 1018.18L1731 882.024V32.0755H2730ZM3413 32.0755L3258.03 -954.832L3259.23 -955.019L3260.42 -955.204L3413 32.0755ZM4096 32.0755H5095V1196.96L3943.73 1019.4L4096 32.0755ZM4096 0.00488281V-998.995H5095V0.00488281H4096ZM2730 0.00488281H1731V-998.995H2730V0.00488281ZM2890.03 -954.024C2991.09 -937.623 3036.71 -934.996 3068.17 -934.995C3100.68 -934.994 3149.71 -937.822 3258.03 -954.832L3567.97 1018.98C3195.78 1077.42 2939.87 1078.2 2569.97 1018.18L2890.03 -954.024ZM3260.42 -955.204C3644.98 -1014.64 3883.7 -1011.48 4248.27 -955.251L3943.73 1019.4C3831.34 1002.07 3786.76 999.469 3756.79 999.393C3727.19 999.319 3680.05 1001.66 3565.58 1019.35L3260.42 -955.204ZM3097 32.0755V0.00488281H5095V32.0755H3097ZM4096 999.005H2730V-998.995H4096V999.005ZM3729 0.00488281V32.0755H1731V0.00488281H3729Z" fill="url(#paint1_linear_34_116)" mask="url(#path-3-inside-2_34_116)"/>
<mask id="path-5-inside-3_34_116" fill="white">
<path d="M683 32.0755C411.792 74.6611 262.255 74.6349 0 32.0755V0.00488281H1366V32.0755C1098.84 -9.128 963.004 -11.1981 683 32.0755Z"/>
</mask>
<path d="M0 32.0755L-160.027 1018.18L-999 882.024V32.0755H0ZM683 32.0755L528.034 -954.832L529.227 -955.019L530.42 -955.204L683 32.0755ZM1366 32.0755H2365V1196.96L1213.73 1019.4L1366 32.0755ZM1366 0.00488281V-998.995H2365V0.00488281H1366ZM0 0.00488281H-999V-998.995H0V0.00488281ZM160.027 -954.024C261.091 -937.623 306.71 -934.996 338.174 -934.995C370.679 -934.994 419.705 -937.822 528.034 -954.832L837.966 1018.98C465.781 1077.42 209.869 1078.2 -160.027 1018.18L160.027 -954.024ZM530.42 -955.204C914.984 -1014.64 1153.7 -1011.48 1518.27 -955.251L1213.73 1019.4C1101.34 1002.07 1056.76 999.469 1026.79 999.393C997.187 999.319 950.055 1001.66 835.58 1019.35L530.42 -955.204ZM367 32.0755V0.00488281H2365V32.0755H367ZM1366 999.005H0V-998.995H1366V999.005ZM999 0.00488281V32.0755H-999V0.00488281H999Z" fill="url(#paint2_linear_34_116)" mask="url(#path-5-inside-3_34_116)"/>
<defs>
<linearGradient id="paint0_linear_34_116" x1="2048" y1="64" x2="2048" y2="0" gradientUnits="userSpaceOnUse">
<stop stop-color="#1DABE8"/>
<stop offset="1" stop-color="#1D85E8" stop-opacity="0.99"/>
</linearGradient>
<linearGradient id="paint1_linear_34_116" x1="3413" y1="64.0049" x2="3413" y2="0.00488281" gradientUnits="userSpaceOnUse">
<stop stop-color="#1DABE8"/>
<stop offset="1" stop-color="#1D85E8" stop-opacity="0.99"/>
</linearGradient>
<linearGradient id="paint2_linear_34_116" x1="683" y1="64.0049" x2="683" y2="0.00488281" gradientUnits="userSpaceOnUse">
<stop stop-color="#1DABE8"/>
<stop offset="1" stop-color="#1D85E8" stop-opacity="0.99"/>
</linearGradient>
</defs>
</svg>
