<svg width="4096" height="64" viewBox="0 0 4096 64" fill="none" xmlns="http://www.w3.org/2000/svg">
<mask id="path-1-inside-1_34_116" fill="white">
<path d="M2048 31.9343C1776.79 -10.6513 1627.26 -10.6252 1365 31.9343V64.0049H2731V31.9343C2463.84 73.1378 2328 75.2078 2048 31.9343Z"/>
</mask>
<path d="M1365 31.9343L1204.97 -954.165L366 -818.015V31.9343H1365ZM2048 31.9343L1893.03 1018.84L1894.23 1019.03L1895.42 1019.21L2048 31.9343ZM2731 31.9343H3730V-1132.95L2578.73 -955.392L2731 31.9343ZM2731 64.0049V1063H3730V64.0049H2731ZM1365 64.0049H366V1063H1365V64.0049ZM1525.03 1018.03C1626.09 1001.63 1671.71 999.006 1703.17 999.005C1735.68 999.004 1784.71 1001.83 1893.03 1018.84L2202.97 -954.973C1830.78 -1013.41 1574.87 -1014.19 1204.97 -954.165L1525.03 1018.03ZM1895.42 1019.21C2279.98 1078.65 2518.7 1075.49 2883.27 1019.26L2578.73 -955.392C2466.34 -938.059 2421.76 -935.459 2391.79 -935.384C2362.19 -935.309 2315.05 -937.653 2200.58 -955.345L1895.42 1019.21ZM1732 31.9343V64.0049H3730V31.9343H1732ZM2731 -934.995H1365V1063H2731V-934.995ZM2364 64.0049V31.9343H366V64.0049H2364Z" fill="url(#paint0_linear_34_116)" mask="url(#path-1-inside-1_34_116)"/>
<mask id="path-3-inside-2_34_116" fill="white">
<path d="M3413 31.9294C3141.79 -10.6562 2992.26 -10.6301 2730 31.9294V64H4096V31.9294C3828.84 73.1329 3693 75.2029 3413 31.9294Z"/>
</mask>
<path d="M2730 31.9294L2569.97 -954.17L1731 -818.02V31.9294H2730ZM3413 31.9294L3258.03 1018.84L3259.23 1019.02L3260.42 1019.21L3413 31.9294ZM4096 31.9294H5095V-1132.96L3943.73 -955.397L4096 31.9294ZM4096 64V1063H5095V64H4096ZM2730 64H1731V1063H2730V64ZM2890.03 1018.03C2991.09 1001.63 3036.71 999.001 3068.17 999C3100.68 998.999 3149.71 1001.83 3258.03 1018.84L3567.97 -954.978C3195.78 -1013.42 2939.87 -1014.2 2569.97 -954.17L2890.03 1018.03ZM3260.42 1019.21C3644.98 1078.64 3883.7 1075.48 4248.27 1019.26L3943.73 -955.397C3831.34 -938.064 3786.76 -935.464 3756.79 -935.389C3727.19 -935.314 3680.05 -937.658 3565.58 -955.35L3260.42 1019.21ZM3097 31.9294V64H5095V31.9294H3097ZM4096 -935H2730V1063H4096V-935ZM3729 64V31.9294H1731V64H3729Z" fill="url(#paint1_linear_34_116)" mask="url(#path-3-inside-2_34_116)"/>
<mask id="path-5-inside-3_34_116" fill="white">
<path d="M683 31.9294C411.792 -10.6562 262.255 -10.6301 0 31.9294V64H1366V31.9294C1098.84 73.1329 963.004 75.2029 683 31.9294Z"/>
</mask>
<path d="M0 31.9294L-160.027 -954.17L-999 -818.02V31.9294H0ZM683 31.9294L528.034 1018.84L529.227 1019.02L530.42 1019.21L683 31.9294ZM1366 31.9294H2365V-1132.96L1213.73 -955.397L1366 31.9294ZM1366 64V1063H2365V64H1366ZM0 64H-999V1063H0V64ZM160.027 1018.03C261.091 1001.63 306.71 999.001 338.174 999C370.679 998.999 419.705 1001.83 528.034 1018.84L837.966 -954.978C465.781 -1013.42 209.869 -1014.2 -160.027 -954.17L160.027 1018.03ZM530.42 1019.21C914.984 1078.64 1153.7 1075.48 1518.27 1019.26L1213.73 -955.397C1101.34 -938.064 1056.76 -935.464 1026.79 -935.389C997.187 -935.314 950.055 -937.658 835.58 -955.35L530.42 1019.21ZM367 31.9294V64H2365V31.9294H367ZM1366 -935H0V1063H1366V-935ZM999 64V31.9294H-999V64H999Z" fill="url(#paint2_linear_34_116)" mask="url(#path-5-inside-3_34_116)"/>
<defs>
<linearGradient id="paint0_linear_34_116" x1="2048" y1="0.00488281" x2="2048" y2="64.0049" gradientUnits="userSpaceOnUse">
<stop stop-color="#1DABE8"/>
<stop offset="1" stop-color="#1D85E8" stop-opacity="0.99"/>
</linearGradient>
<linearGradient id="paint1_linear_34_116" x1="3413" y1="0" x2="3413" y2="64" gradientUnits="userSpaceOnUse">
<stop stop-color="#1DABE8"/>
<stop offset="1" stop-color="#1D85E8" stop-opacity="0.99"/>
</linearGradient>
<linearGradient id="paint2_linear_34_116" x1="683" y1="0" x2="683" y2="64" gradientUnits="userSpaceOnUse">
<stop stop-color="#1DABE8"/>
<stop offset="1" stop-color="#1D85E8" stop-opacity="0.99"/>
</linearGradient>
</defs>
</svg>
